<svg width="54" height="59" viewBox="0 0 54 59" fill="none" xmlns="http://www.w3.org/2000/svg">
<path fill-rule="evenodd" clip-rule="evenodd" d="M33.1406 8.0008C33.4731 7.50705 33.7991 7.01558 34.1021 6.50367C34.2464 6.26119 34.3862 6.0127 34.5193 5.7636C34.6135 5.58859 34.6799 5.35505 34.4505 5.24515C34.2163 5.13332 34.1178 5.34486 33.9813 5.47843C33.7855 5.67095 33.073 5.90983 32.8605 5.61326C32.7694 5.48603 32.7902 5.17425 32.777 5.0158C32.7514 4.71243 32.7262 4.40787 32.6736 4.10756C32.5462 3.39496 32.3237 2.69271 31.8739 2.10765C31.6294 1.79052 30.9108 1.36572 30.5371 1.21572C30.0502 1.02078 28.7633 0.645927 28.4046 0.589675C27.9036 0.510829 26.9468 0.457735 26.4458 0.545944C25.9599 0.63119 24.4402 1.23505 24.0415 1.56915C23.2351 2.24416 22.7842 3.12101 22.6125 4.14802C22.4102 5.35617 22.6018 6.61249 22.9901 7.76856C23.3644 8.8835 23.7726 10.049 24.1198 11.1328L24.1606 11.2662C24.0997 11.0829 24.1633 11.2784 24.1709 11.3093C24.1922 11.3875 24.2144 11.4668 24.234 11.5457C24.273 11.7006 24.3093 11.8551 24.3326 12.0128C24.376 12.3066 24.3765 12.5998 24.3456 12.8936C24.2783 13.5291 24.1371 14.1411 23.8061 14.6932C23.5152 15.1786 23.0731 15.6358 22.4661 15.6388C21.7889 15.642 21.3242 15.2835 20.9168 14.7795C20.2288 13.9272 19.7385 12.8775 19.4905 11.8163C19.2711 10.8787 19.2689 9.88668 19.0049 8.96168C18.943 8.74464 18.8729 8.64813 18.6548 8.74953C18.5137 8.81514 17.8866 9.75873 17.7934 9.86938C17.2202 10.5396 16.7157 11.3308 16.2722 12.0895C16.1308 12.3318 15.9842 12.5712 15.8348 12.8089C15.7152 12.9987 15.6463 13.2041 15.5259 13.3873C15.4393 13.5194 15.3187 13.6323 15.3787 13.804C15.4753 14.0762 15.7454 13.9937 15.9222 13.8792C16.1489 13.7339 16.3688 13.5762 16.5929 13.4271C16.9941 13.1609 17.6196 12.6899 18.1368 12.7683C18.3174 12.7959 18.7724 13.4749 18.9416 13.6858C19.1422 13.9359 19.2809 14.3001 19.4332 14.5857C19.6727 15.0323 19.9951 15.4561 20.3085 15.8539C20.4967 16.0934 21.3151 16.9426 21.4627 17.0126C21.7787 17.1609 22.1128 17.3144 22.4395 17.4363C23.431 17.8063 24.6313 17.6861 25.6607 17.5659C26.7459 17.4398 27.8213 16.9025 28.4316 15.9869C29.0926 14.9936 29.4576 13.8024 29.2876 12.6028C29.2051 12.0252 28.9893 11.4872 28.9105 10.9125C28.8216 10.2662 28.6533 9.63804 28.497 9.00568C28.2038 7.82045 27.879 6.67397 27.7253 5.46147C27.6524 4.88777 27.4969 4.21047 27.6289 3.6366C27.7571 3.07579 28.2094 2.57259 28.7797 2.52276C29.0273 2.50148 29.4104 2.48684 29.6303 2.60822C29.9144 2.76522 30.1675 2.94732 30.3878 3.18303C30.8039 3.62924 31.1803 4.12414 31.4897 4.65749C32.027 5.58547 32.0296 6.70225 31.9348 7.73662C31.9055 8.05053 31.8624 8.36238 31.8422 8.67787C31.8313 8.85306 31.7754 9.09501 31.8516 9.25588C32.023 9.61804 32.4205 9.09759 32.5379 8.91317C32.7328 8.60548 32.9371 8.30224 33.1406 8.0008ZM24.0359 11.1393L24.0236 11.101L24.0359 11.1393ZM53.2547 5.76587C53.2187 5.43815 52.8911 5.34086 52.6197 5.28012C52.1818 5.18428 51.7406 5.09825 51.3012 5.00947C50.4313 4.83409 46.3564 4.08741 45.1698 3.91171C44.1386 3.75899 40.2695 3.03265 39.3417 2.9801C38.6504 2.94075 37.9604 2.82399 37.2713 2.74798C36.9682 2.71413 36.8101 2.75825 36.5479 2.92259C36.3628 3.03868 36.1949 3.19508 36.0438 3.3527C35.8935 3.50997 35.7124 3.82464 35.5945 3.9483C35.4578 4.09086 35.087 4.52112 34.9888 4.6924C34.7886 5.03903 34.6925 5.25154 35.056 5.41134C35.3982 5.56187 35.8128 5.2314 36.0932 5.05979C36.4678 4.83014 36.8201 4.56641 37.1912 4.33184C37.9328 3.86246 38.6849 3.84069 39.5322 3.93598C39.9349 3.98141 41.8529 4.22795 42.0225 4.33461C42.2028 4.44908 41.8864 4.7927 41.7763 4.94179C41.506 5.30888 41.2003 5.64641 40.9192 6.00425C40.3985 6.66848 39.9179 7.37258 39.4417 8.06939C38.5203 9.41908 37.6007 10.7744 36.7493 12.1691C36.5933 12.425 36.4304 12.6739 36.2668 12.9246C36.1337 13.1271 34.0865 16.4415 33.6104 16.8418C33.3538 17.0578 33.0522 17.2028 32.7294 17.2814C32.4089 17.3596 32.0427 17.3943 31.7891 17.6303C31.4782 17.9191 31.5686 18.3063 31.9291 18.4788C32.2731 18.644 32.7027 18.6502 33.0747 18.6888C33.8509 18.7694 37.6136 19.4737 38.7734 19.6796C39.2338 19.7609 40.2865 20.1033 40.5897 19.5462C40.782 19.1915 40.5139 18.8245 40.2985 18.5643C40.1653 18.402 39.9503 18.2374 39.9258 18.0242C39.864 17.4884 40.2747 16.9504 40.5439 16.5035C40.7451 16.1698 40.9722 15.8514 41.1813 15.5223C41.8238 14.5146 42.4377 13.478 43.1166 12.494C43.2835 12.2523 43.448 12.0082 43.6168 11.7686C44.0611 11.139 44.4769 10.4798 44.9385 9.8641C45.8414 8.65865 46.5634 7.33153 47.52 6.16515C47.6499 6.00664 47.7808 5.84921 47.9123 5.69202C47.9397 5.65852 48.0466 5.49146 48.0987 5.46928C48.2522 5.40382 50.718 5.97496 51.0586 6.06773C51.4187 6.167 51.6063 6.21342 51.5843 6.61939C51.5658 6.95298 51.406 7.29921 51.3332 7.62621C51.2764 7.88243 51.2105 8.3493 51.5646 8.41345C51.8756 8.46924 52.0334 7.99346 52.1556 7.77478C52.3607 7.40575 53.246 6.10619 53.2553 5.76611L53.2547 5.76587ZM48.1404 19.8702C48.1397 18.7382 46.9163 17.963 45.801 18.1327C44.7868 18.2875 43.7872 19.8103 45.162 20.3375C45.2932 20.3877 45.7661 20.4071 45.7996 20.5411C45.8492 20.7351 45.322 20.9227 45.1944 20.9791C44.7337 21.1824 44.2561 21.168 43.7732 21.2886C43.5994 21.332 43.369 21.459 43.488 21.6636C43.5804 21.8219 43.94 21.9294 44.1046 21.9881C44.5403 22.1435 45.0015 22.215 45.464 22.1987C46.8187 22.1436 48.1316 21.196 48.1404 19.8702ZM30.1388 55.3799C29.245 54.8107 28.0345 55.0854 27.2503 55.7018C26.816 56.0432 26.4437 56.4617 26.482 57.0388C26.5129 57.5134 26.7294 57.955 27.1142 58.2445C27.9035 58.837 29.322 58.6615 29.959 57.9397C30.5553 57.2656 31.1278 56.0077 30.1388 55.3799ZM29.7765 47.8211C29.7935 47.6825 29.7403 47.549 29.587 47.5157C29.4723 47.4917 29.0508 46.8986 28.2775 47.9189C27.5533 48.8742 23.1593 51.8304 21.8786 52.4618C21.1411 52.8278 20.3831 53.1505 19.6083 53.4283C18.9059 53.6783 18.2173 53.8802 17.4622 53.8576C16.7712 53.8365 16.0744 53.7226 15.3939 53.6082C14.538 53.4635 12.8694 53.2048 12.8967 53.1957C12.5589 53.0601 12.0119 52.9488 11.7085 52.6295C11.5803 52.4943 11.5943 52.0531 11.5944 51.8736C11.5955 51.0784 12.1478 50.3393 12.4311 49.6162C12.6602 49.0306 12.9852 48.49 13.2765 47.933C13.6729 47.1741 17.3374 41.2461 17.5786 40.7872C17.8238 40.3223 18.0994 39.8697 18.3648 39.4164C18.4368 39.293 18.4976 39.1129 18.6214 39.0765C18.7477 39.039 18.9653 39.0989 19.1047 39.1064C19.6299 39.1372 20.1504 39.2163 20.6713 39.2906C21.1311 39.3563 21.586 39.4583 22.0334 39.5823C22.2188 39.6341 22.3963 39.6591 22.5211 39.7873C22.6785 39.9482 22.7298 40.1603 22.7153 40.3807C22.6855 40.8629 22.4823 41.3858 22.3305 41.8431C22.2125 42.1978 22.0575 42.5376 21.9364 42.8911C21.8233 43.2234 21.5685 43.683 21.7367 44.0272C21.9114 44.3865 22.319 44.3302 22.5906 44.1286C23.1829 43.6902 23.5679 42.8697 23.9526 42.255C24.4129 41.5184 24.8863 40.794 25.3519 40.0616C26.116 38.8593 27.056 37.7307 27.6693 36.4405C27.8013 36.1632 28.0901 35.5968 27.9312 35.2863C27.7395 34.914 27.2594 35.2312 27.0334 35.3851C26.2339 35.9258 25.6896 36.7364 24.9756 37.37C24.6256 37.6813 24.1873 37.9639 23.7269 38.0685C23.2551 38.1755 22.7914 38.0713 22.3269 37.9724C21.7288 37.8447 21.1244 37.7465 20.5241 37.6297C20.1952 37.5666 19.8652 37.522 19.5332 37.4786C20.3246 36.3361 23.9131 31.4562 24.9079 30.1263C25.3537 29.5307 25.7693 28.9118 26.2231 28.3222C26.6962 27.707 27.1345 27.0422 27.6509 26.4646C27.9195 26.1637 28.6992 25.3137 28.933 25.1887C29.0321 25.1361 29.6332 25.1578 29.7496 25.1449C29.9038 25.1277 30.1361 25.2047 30.2883 25.2285C31.1083 25.3573 31.9312 25.4838 32.7476 25.6334C33.5463 25.7755 34.3346 25.9709 35.1072 26.2181C36.1183 26.5465 37.2908 27.0638 37.68 28.1437C37.8502 28.6174 37.8452 29.1103 37.847 29.6073C37.8478 30.1393 37.7991 30.6633 37.6329 31.1719C37.368 31.9838 37.0703 32.7791 36.8593 33.6072C36.7598 33.9986 35.9736 35.6986 36.8682 35.6682C37.3762 35.6503 37.7008 34.9745 37.9883 34.6408C38.296 34.2825 38.5337 33.8654 38.7538 33.4349C39.1808 32.6 39.764 31.8496 40.3028 31.0855C40.7345 30.473 41.1271 29.8114 41.5186 29.173C41.9641 28.4472 42.4249 27.6954 42.6563 26.8686C42.7733 26.4508 42.8749 25.9008 42.526 25.5653C42.2293 25.2793 39.8878 25.0047 39.1503 24.8799C38.3307 24.7415 37.5147 24.5893 36.6927 24.4673C36.3624 24.4183 28.9468 23.1062 27.9588 22.9082C27.0834 22.7327 21.8089 21.5309 21.3709 21.3835C21.1449 21.3083 20.6817 21.0701 20.5266 21.4049C20.4852 21.4927 20.4676 21.5898 20.4756 21.6864C20.4911 21.7115 20.5327 21.8549 20.5665 21.9055C20.6879 22.0936 20.8863 22.4854 20.9069 22.61C20.9446 22.8389 20.959 23.0667 20.9375 23.2975C20.9051 23.6707 20.7159 23.8693 20.4948 24.154C20.0699 24.703 19.6358 25.2455 19.2241 25.8048C18.2988 27.0604 17.4585 28.3725 16.5822 29.6618C15.6262 31.0679 14.5694 32.4068 13.6347 33.8256C12.942 34.8785 12.3207 35.9936 11.7103 37.0957C11.2529 37.9198 10.702 38.6727 10.1873 39.4598C9.77748 40.0938 9.38727 40.7403 9.01727 41.3983C8.57407 42.1753 8.11582 42.9447 7.54212 43.6335C7.17981 44.0686 4.22741 48.937 3.91734 49.5595C3.76791 49.8612 3.61466 50.1585 3.43859 50.4453C3.25205 50.7494 3.08248 51.1975 2.73417 51.3514C2.26978 51.5535 1.79943 51.7415 1.32378 51.9152C1.04458 52.0183 0.725388 52.0915 0.516849 52.3192C0.224705 52.6371 0.335759 53.0577 0.715992 53.2243C1.32542 53.4909 2.09158 53.4894 2.74991 53.5607C3.44353 53.6358 4.12453 53.7593 4.80921 53.8927C6.07057 54.1397 15.091 55.6549 16.6822 55.8455C17.3738 55.9288 18.0632 56.0161 18.746 56.1578C19.4713 56.3075 20.2023 56.3845 20.9173 56.5788C21.8412 56.8268 22.7744 57.0382 23.7149 57.2128C24.0679 57.2799 24.391 57.2452 24.7034 57.0476C25.0037 56.8576 25.5998 55.7497 25.7361 55.4824C25.9298 55.1019 26.9891 52.8625 27.4078 52.169C27.8921 51.3676 29.7426 48.0998 29.7763 47.8217" fill="black"/>
</svg>
